<svg viewBox="0 0 500 654" version="1.1" xmlns="http://www.w3.org/2000/svg" xmlns:xlink="http://www.w3.org/1999/xlink">
     <g stroke="none" stroke-width="1" fill="none" fill-rule="evenodd">
        <g id="icon">
            <path d="M147.834951,172 C102.980583,172 43.1747573,152.676471 13.2718447,62.5 L9,45.3235294 L23.9514563,38.8823529 C23.9514563,38.8823529 62.3980583,26 105.116505,26 C177.737864,26 222.592233,66.7941176 229,139.794118 L229,150.529412 L220.456311,154.823529 C220.456311,154.823529 188.417476,172 147.834951,172 Z" id="Path" fill="#22292F"></path>
            <path d="M49,66.6315789 C70.3043478,116.263158 102.26087,140 147,140 C166.173913,140 185.347826,135.684211 196,131.368421 C187.478261,81.7368421 157.652174,58 106.521739,58 C83.0869565,58 61.7826087,62.3157895 49,66.6315789 Z" id="Path" fill="#30BF18"></path>
            <path d="M250,654 C113.247863,654 0,546.5 0,417.5 C0,286.35 111.111111,181 250,181 C386.752137,181 500,288.5 500,417.5 C500,548.65 386.752137,654 250,654 Z" id="Path" fill="#22292F"></path>
            <path d="M250,213 C130.313725,213 32,305.563158 32,417.5 C32,531.589474 130.313725,622 250,622 C369.686275,622 468,529.436842 468,417.5 C468,303.410526 369.686275,213 250,213 Z" id="Path" fill="#FF6347"></path>
            <path d="M245.842499,200 C245.842499,197.849462 218.038749,49.4623656 378.445,0 L387,30.1075269 C254.397499,70.9677419 275.784999,189.247312 275.784999,193.548387 L245.842499,200 Z" id="Shape" fill="#22292F" fill-rule="nonzero"></path>
        </g>
    </g>
</svg>